HIERARCHY
ROOT SpineBase
{
  OFFSET 0.000000 0.000000 0.000000
  CHANNELS 6 Xposition Yposition Zposition Zrotation Xrotation Yrotation
  JOINT SpineMid
  {
    OFFSET 0.000000 27.611513 0.000000
    CHANNELS 3 Zrotation Xrotation Yrotation
    JOINT SpineShoulder
    {
      OFFSET -0.149532 20.558703 -0.761366
      CHANNELS 3 Zrotation Xrotation Yrotation
      JOINT Neck
      {
        OFFSET -0.065834 6.870651 -0.577956
        CHANNELS 3 Zrotation Xrotation Yrotation
        JOINT Head
        {
          OFFSET 2.732541 13.646960 -1.413233
          CHANNELS 3 Zrotation Xrotation Yrotation
          End Site
          {
            OFFSET 0 0 0
          }
        }
      }
      JOINT ShoulderLeft
      {
        OFFSET -13.536641 -3.034118 -5.986445
        CHANNELS 3 Zrotation Xrotation Yrotation
        JOINT ElbowLeft
        {
          OFFSET -7.341947 -19.720444 2.000483
          CHANNELS 3 Zrotation Xrotation Yrotation
          JOINT WristLeft
          {
            OFFSET 16.867365 -15.172774 -13.600503
            CHANNELS 3 Zrotation Xrotation Yrotation
            JOINT HandLeft
            {
              OFFSET 2.423089 -1.161339 -1.443247
              CHANNELS 3 Zrotation Xrotation Yrotation
              JOINT HandTipLeft
              {
                OFFSET 2.284871 -3.363926 -2.764130
                CHANNELS 3 Zrotation Xrotation Yrotation
                End Site
                {
                  OFFSET 0 0 0
                }
              }
              JOINT ThumbLeft
              {
                OFFSET 3.049950 2.286100 1.749814
                CHANNELS 3 Zrotation Xrotation Yrotation
                End Site
                {
                  OFFSET 0 0 0
                }
              }
            }
          }
        }
      }
      JOINT ShoulderRight
      {
        OFFSET 16.536023 -3.173857 4.102075
        CHANNELS 3 Zrotation Xrotation Yrotation
        JOINT ElbowRight
        {
          OFFSET 3.823739 -21.032170 5.323231
          CHANNELS 3 Zrotation Xrotation Yrotation
          JOINT WristRight
          {
            OFFSET -4.108746 -13.647029 -19.441781
            CHANNELS 3 Zrotation Xrotation Yrotation
            JOINT HandRight
            {
              OFFSET -2.436483 -1.484873 -1.472924
              CHANNELS 3 Zrotation Xrotation Yrotation
              JOINT HandTipRight
              {
                OFFSET 0.171739 -1.387831 -3.345842
                CHANNELS 3 Zrotation Xrotation Yrotation
                End Site
                {
                  OFFSET 0 0 0
                }
              }
              JOINT ThumbRight
              {
                OFFSET -3.396981 0.134209 -0.763572
                CHANNELS 3 Zrotation Xrotation Yrotation
                End Site
                {
                  OFFSET 0 0 0
                }
              }
            }
          }
        }
      }
    }
  }
  JOINT HipLeft
  {
    OFFSET -6.987494 1.392329 -4.674871
    CHANNELS 3 Zrotation Xrotation Yrotation
    JOINT KneeLeft
    {
      OFFSET -4.274120 -26.973712 2.816683
      CHANNELS 3 Zrotation Xrotation Yrotation
      JOINT AnkleLeft
      {
        OFFSET 0.727783 -48.607305 16.131082
        CHANNELS 3 Zrotation Xrotation Yrotation
        JOINT FootLeft
        {
          OFFSET -1.038088 -4.167598 -8.492181
          CHANNELS 3 Zrotation Xrotation Yrotation
          End Site
          {
            OFFSET 0 0 0
          }
        }
      }
    }
  }
  JOINT HipRight
  {
    OFFSET 5.973308 0.729998 -1.476072
    CHANNELS 3 Zrotation Xrotation Yrotation
    JOINT KneeRight
    {
      OFFSET 2.664108 -31.301601 5.695621
      CHANNELS 3 Zrotation Xrotation Yrotation
      JOINT AnkleRight
      {
        OFFSET 1.921646 -41.534318 13.793276
        CHANNELS 3 Zrotation Xrotation Yrotation
        JOINT FootRight
        {
          OFFSET 5.084246 -7.148228 -4.188567
          CHANNELS 3 Zrotation Xrotation Yrotation
          End Site
          {
            OFFSET 0 0 0
          }
        }
      }
    }
  }
}
MOTION
Frames: 9
Frame Time: 0.033333
52.973161 81.401460 366.323755 -0.000000 0.000000 -13.863858 -0.000000 0.000000 13.863858 -0.000000 0.000000 0.000000 -0.000000 0.000000 0.000000 0.000000 0.000000 0.000000 -0.000000 0.000000 0.000000 -0.000000 0.000000 0.000000 -0.000000 0.000000 0.000000 -0.000000 0.000000 0.000000 0.000000 0.000000 0.000000 0.000000 0.000000 0.000000 -0.000000 0.000000 0.000000 -0.000000 0.000000 0.000000 -0.000000 0.000000 0.000000 -0.000000 0.000000 0.000000 0.000000 0.000000 0.000000 0.000000 0.000000 0.000000 -0.000000 0.000000 13.863858 -0.000000 0.000000 0.000000 -0.000000 0.000000 0.000000 0.000000 0.000000 0.000000 -0.000000 0.000000 13.863858 -0.000000 0.000000 0.000000 -0.000000 0.000000 0.000000 0.000000 0.000000 0.000000
52.968599 81.379094 366.254179 -0.092308 -0.005111 -13.725903 0.088459 0.026868 13.725879 -0.000000 0.000000 0.000000 -0.000000 0.000000 0.000000 0.000000 0.000000 0.000000 -0.000000 0.000000 0.000000 -0.000000 0.000000 0.000000 -1.697000 -2.476605 -3.284622 1.120257 8.447655 7.178195 0.000000 0.000000 0.000000 0.000000 0.000000 0.000000 -0.694003 0.570680 -0.068607 0.694720 -0.569807 0.075517 4.584299 0.555998 -5.834819 -4.006405 -8.454960 5.452752 0.000000 0.000000 0.000000 0.000000 0.000000 0.000000 0.088459 0.026868 13.725879 -0.000000 0.000000 0.000000 0.132237 -2.338838 0.329705 0.000000 0.000000 0.000000 0.088459 0.026868 13.725879 -0.000000 0.000000 0.000000 -2.066884 1.204151 2.103259 0.000000 0.000000 0.000000
52.972432 81.382333 366.209172 -0.168715 -0.028426 -13.616613 0.157280 0.067346 13.616478 -0.000000 0.000000 0.000000 -0.000000 0.000000 0.000000 0.000000 0.000000 0.000000 -0.000000 0.000000 0.000000 -0.000000 0.000000 0.000000 -3.300148 -4.632109 -6.401732 1.275803 14.846171 13.055230 0.000000 0.000000 0.000000 0.000000 0.000000 0.000000 -1.165475 0.967163 -0.109753 1.167491 -0.964729 0.129420 8.110070 0.160499 -9.394030 -6.379291 -13.401983 8.712735 0.000000 0.000000 0.000000 0.000000 0.000000 0.000000 0.157280 0.067346 13.616478 -0.000000 0.000000 0.000000 0.458714 -3.933009 0.065744 0.000000 0.000000 0.000000 0.157280 0.067346 13.616478 -0.000000 0.000000 0.000000 -3.772529 2.180217 3.880206 0.000000 0.000000 0.000000
52.984659 81.411178 366.188734 -0.229362 -0.069990 -13.536226 0.206609 0.121730 13.535867 -0.000000 0.000000 0.000000 -0.000000 0.000000 0.000000 0.000000 0.000000 0.000000 -0.000000 0.000000 0.000000 0.427049 -0.279620 -0.691245 -4.978143 -6.108555 -8.373422 1.003562 19.094940 17.439710 0.000000 0.000000 0.000000 0.000000 0.000000 0.000000 -1.420975 1.193832 -0.128438 1.423955 -1.190276 0.158035 10.360303 -0.867249 -10.405072 -8.074026 -15.170799 9.456288 0.000000 0.000000 0.000000 0.000000 0.000000 0.000000 0.206609 0.121730 13.535867 -0.000000 0.000000 0.000000 0.956845 -4.690700 -0.810898 0.000000 0.000000 0.000000 0.206609 0.121730 13.535867 -0.079358 0.949898 0.018304 -5.045925 2.029996 5.240403 0.000000 0.000000 0.000000
53.005281 81.465629 366.192867 -0.274331 -0.129919 -13.485073 0.236473 0.190308 13.484369 -0.000000 0.000000 0.000000 -0.000000 0.000000 0.000000 0.000000 0.000000 0.000000 -0.000000 0.000000 0.000000 -0.000000 0.000000 0.000000 -5.511292 -7.477823 -11.121865 0.749463 21.226304 20.066129 0.000000 0.000000 0.000000 0.000000 0.000000 0.000000 -1.465430 1.254270 -0.127487 1.468566 -1.250595 0.159557 11.339856 -2.317302 -8.858950 -9.417939 -13.998806 7.561125 0.000000 0.000000 0.000000 0.000000 0.000000 0.000000 0.236473 0.190308 13.484369 -0.000000 0.000000 0.000000 1.616345 -4.586635 -2.279754 0.000000 0.000000 0.000000 0.236473 0.190308 13.484369 -0.153945 1.152833 0.003777 -5.990776 2.478587 6.378466 0.000000 0.000000 0.000000
53.034298 81.545685 366.221569 -0.303646 -0.208397 -13.463575 0.246783 0.273364 13.462434 -0.000000 0.000000 0.000000 -0.000000 0.000000 0.000000 0.000000 0.000000 0.000000 0.109337 -0.808739 0.312849 -0.104930 0.809323 -0.311336 -5.843838 -8.059996 -12.344901 0.806805 21.286039 20.730195 0.000000 0.000000 0.000000 0.000000 0.000000 0.000000 -1.302133 1.151124 -0.107712 0.942685 -0.222908 0.360253 11.504561 -5.073084 -4.930868 -10.105188 -9.931455 3.144048 0.000000 0.000000 0.000000 0.000000 0.000000 0.000000 -0.296148 -0.455434 13.480969 0.697902 0.582123 -0.022943 2.438652 -3.663553 -4.278731 0.000000 0.000000 0.000000 0.902500 0.904232 13.637706 -1.033883 0.846629 -0.207786 -6.587754 2.861368 7.243527 0.000000 0.000000 0.000000
53.065140 81.669095 366.265929 -0.337843 -0.296515 -13.518724 0.259174 0.367270 13.517019 -0.000000 0.000000 0.000000 -0.000000 0.000000 0.000000 0.000000 0.000000 0.000000 0.280767 -0.994064 0.401029 -0.273845 0.995993 -0.396213 -7.697212 -8.464665 -11.275299 5.038593 18.511380 15.519355 0.000000 0.000000 0.000000 0.000000 0.000000 0.000000 -1.215860 1.110380 -0.094499 0.053606 -1.618554 1.908790 9.919864 -11.053245 11.419566 -7.457702 1.908314 -17.299684 0.000000 0.000000 0.000000 0.000000 0.000000 0.000000 -0.315430 -0.479838 13.546618 0.757085 0.688917 -0.034715 7.652282 3.482279 -15.889832 0.000000 0.000000 0.000000 1.422505 1.312102 13.801016 -1.907069 0.955978 -0.420086 -6.691088 2.732282 7.697595 0.000000 0.000000 0.000000
53.130823 81.818286 366.352605 -0.312304 -0.431739 -13.555185 0.202422 0.492907 13.553138 -0.000000 0.000000 0.000000 -0.000000 0.000000 0.000000 0.000000 0.000000 0.000000 0.517787 -1.168977 0.493351 -0.507809 1.173346 -0.482869 -5.567171 -9.415711 -16.494634 0.606894 15.921998 20.407468 0.000000 0.000000 0.000000 0.000000 0.000000 0.000000 -0.696717 0.815297 -0.023224 -0.119025 -0.007108 0.934947 13.352683 -12.974095 11.032849 -10.637416 8.501459 -11.446165 0.000000 0.000000 0.000000 0.000000 0.000000 0.000000 -0.526457 -0.366301 13.564191 1.013862 1.567637 0.030449 4.136809 -1.865334 -8.561133 0.000000 0.000000 0.000000 1.423893 1.333649 13.830726 -2.169469 1.606292 -0.462285 -3.189229 5.062382 7.638061 0.000000 0.000000 0.000000
53.189287 81.972477 366.453202 -0.278848 -0.562200 -13.584214 0.139012 0.611963 13.582104 -0.000000 0.000000 0.000000 -0.000000 0.000000 0.000000 0.000000 0.000000 0.000000 0.601228 -1.275202 0.542904 -1.367520 1.173471 0.061282 -3.748167 -9.367973 -18.524384 0.269476 10.421225 18.684058 0.000000 0.000000 0.000000 0.000000 0.000000 0.000000 -0.000000 0.000000 0.000000 0.553529 2.676852 -1.557891 6.532328 -12.155843 13.806587 0.645322 16.502799 -19.675808 0.000000 0.000000 0.000000 0.000000 0.000000 0.000000 -0.784808 -0.235354 13.566750 1.214167 1.574629 0.063984 5.392132 2.235137 -11.588984 0.000000 0.000000 0.000000 1.233645 1.466080 13.841118 -2.046309 1.237561 -0.459986 -2.412008 7.566481 8.646543 0.000000 0.000000 0.000000
